<svg xmlns="http://www.w3.org/2000/svg">
    <style>:root svg:not(:target){display:none}</style>

    <svg id="search-icon" width="21" height="21" viewBox="0 0 21 21" fill="none" stroke="currentColor">
        <path d="M9.625 16.625C13.491 16.625 16.625 13.491 16.625 9.625C16.625 5.75901 13.491 2.625 9.625 2.625C5.75901 2.625 2.625 5.75901 2.625 9.625C2.625 13.491 5.75901 16.625 9.625 16.625Z" stroke-width="2.33333" stroke-linecap="round" stroke-linejoin="round"/>
        <path d="M18.375 18.375L14.5688 14.5688" stroke-width="2.33333" stroke-linecap="round" stroke-linejoin="round"/>
    </svg>

    <svg id="gift-icon" width="31" height="31" viewBox="0 0 31 31" fill="none" stroke="currentColor">
        <path d="M25.8333 15.5V28.4167H5.16666V15.5" stroke-width="2" stroke-linecap="round" stroke-linejoin="round"/>
        <path d="M28.4167 9.04166H2.58334V15.5H28.4167V9.04166Z" stroke-width="2" stroke-linecap="round" stroke-linejoin="round"/>
        <path d="M15.5 28.4167V9.04166" stroke-width="2" stroke-linecap="round" stroke-linejoin="round"/>
        <path d="M15.5 9.04168H9.68751C8.83108 9.04168 8.00973 8.70146 7.40414 8.09588C6.79856 7.49029 6.45834 6.66894 6.45834 5.81251C6.45834 4.95608 6.79856 4.13473 7.40414 3.52914C8.00973 2.92356 8.83108 2.58334 9.68751 2.58334C14.2083 2.58334 15.5 9.04168 15.5 9.04168Z" stroke-width="2" stroke-linecap="round" stroke-linejoin="round"/>
        <path d="M15.5 9.04168H21.3125C22.1689 9.04168 22.9903 8.70146 23.5959 8.09588C24.2015 7.49029 24.5417 6.66894 24.5417 5.81251C24.5417 4.95608 24.2015 4.13473 23.5959 3.52914C22.9903 2.92356 22.1689 2.58334 21.3125 2.58334C16.7917 2.58334 15.5 9.04168 15.5 9.04168Z" stroke-width="2" stroke-linecap="round" stroke-linejoin="round"/>
    </svg>

    <svg id="notification-icon" width="30" height="30" viewBox="0 0 30 30" fill="none" stroke="currentColor">
        <path d="M22.5 10C22.5 8.01088 21.7098 6.10322 20.3033 4.6967C18.8968 3.29018 16.9891 2.5 15 2.5C13.0109 2.5 11.1032 3.29018 9.6967 4.6967C8.29018 6.10322 7.5 8.01088 7.5 10C7.5 18.75 3.75 21.25 3.75 21.25H26.25C26.25 21.25 22.5 18.75 22.5 10Z" stroke-width="2.33333" stroke-linecap="round" stroke-linejoin="round"/>
        <path d="M17.1625 26.25C16.9428 26.6288 16.6273 26.9433 16.2478 27.1619C15.8683 27.3805 15.438 27.4956 15 27.4956C14.562 27.4956 14.1318 27.3805 13.7522 27.1619C13.3727 26.9433 13.0573 26.6288 12.8375 26.25" stroke-width="2.33333" stroke-linecap="round" stroke-linejoin="round"/>
    </svg>

    <svg id="account-icon" width="23" height="30" viewBox="0 0 23 30" fill="none" stroke="currentColor">
        <g clip-path="url(#clip0_9_47)">
            <path d="M21.25 26.25V23.75C21.25 22.4239 20.7232 21.1521 19.7855 20.2145C18.8479 19.2768 17.5761 18.75 16.25 18.75H6.25C4.92392 18.75 3.65215 19.2768 2.71447 20.2145C1.77678 21.1521 1.25 22.4239 1.25 23.75V26.25" stroke-width="3" stroke-linecap="round" stroke-linejoin="round"/>
            <path d="M11.25 13.75C14.0114 13.75 16.25 11.5114 16.25 8.75C16.25 5.98858 14.0114 3.75 11.25 3.75C8.48858 3.75 6.25 5.98858 6.25 8.75C6.25 11.5114 8.48858 13.75 11.25 13.75Z" stroke-width="3" stroke-linecap="round" stroke-linejoin="round"/>
        </g>
        <defs>
            <clipPath id="clip0_9_47">
                <rect width="23" height="30"/>
            </clipPath>
        </defs>
    </svg>

    <svg id="users-icon" width="30" height="30" viewBox="0 0 30 30" fill="currentColor" stroke="currentColor">
        <g clip-path="url(#clip0_9_47)">
            <path d="M21.25 26.25V23.75C21.25 22.4239 20.7232 21.1521 19.7855 20.2145C18.8479 19.2768 17.5761 18.75 16.25 18.75H6.25C4.92392 18.75 3.65215 19.2768 2.71447 20.2145C1.77678 21.1521 1.25 22.4239 1.25 23.75V26.25" stroke-width="3" stroke-linecap="round" stroke-linejoin="round"/>
            <path d="M11.25 13.75C14.0114 13.75 16.25 11.5114 16.25 8.75C16.25 5.98858 14.0114 3.75 11.25 3.75C8.48858 3.75 6.25 5.98858 6.25 8.75C6.25 11.5114 8.48858 13.75 11.25 13.75Z" stroke-width="3" stroke-linecap="round" stroke-linejoin="round"/>
            <path d="M28.75 26.25V23.75C28.7492 22.6422 28.3804 21.566 27.7017 20.6904C27.023 19.8148 26.0727 19.1895 25 18.9125" stroke-width="3" stroke-linecap="round" stroke-linejoin="round"/>
            <path d="M20 3.91251C21.0755 4.18788 22.0288 4.81338 22.7095 5.69039C23.3903 6.56741 23.7598 7.64604 23.7598 8.75626C23.7598 9.86647 23.3903 10.9451 22.7095 11.8221C22.0288 12.6991 21.0755 13.3246 20 13.6" stroke-width="3" stroke-linecap="round" stroke-linejoin="round"/>
        </g>
        <defs>
            <clipPath id="clip0_9_47">
                <rect width="30" height="30"/>
            </clipPath>
        </defs>
    </svg>

    <svg id="lists-icon" width="30" height="30" viewBox="0 0 30 30" fill="none" stroke="currentColor">
        <path d="M10 7.5H26.25" stroke-width="3" stroke-linecap="round" stroke-linejoin="round"/>
        <path d="M10 15H26.25" stroke-width="3" stroke-linecap="round" stroke-linejoin="round"/>
        <path d="M10 22.5H26.25" stroke-width="3" stroke-linecap="round" stroke-linejoin="round"/>
        <path d="M3.75 7.5H3.76312" stroke-width="3" stroke-linecap="round" stroke-linejoin="round"/>
        <path d="M3.75 15H3.76312" stroke-width="3" stroke-linecap="round" stroke-linejoin="round"/>
        <path d="M3.75 22.5H3.76312" stroke-width="3" stroke-linecap="round" stroke-linejoin="round"/>
    </svg>

    <svg id="downloads-icon" width="30" height="30" viewBox="0 0 30 30" fill="none" stroke="currentColor">
        <path d="M26.25 18.75V23.75C26.25 24.413 25.9866 25.0489 25.5178 25.5178C25.0489 25.9866 24.413 26.25 23.75 26.25H6.25C5.58696 26.25 4.95107 25.9866 4.48223 25.5178C4.01339 25.0489 3.75 24.413 3.75 23.75V18.75" stroke-width="3" stroke-linecap="round" stroke-linejoin="round"/>
        <path d="M8.75 12.5L15 18.75L21.25 12.5" stroke-width="3" stroke-linecap="round" stroke-linejoin="round"/>
        <path d="M15 18.75V3.75" stroke-width="3" stroke-linecap="round" stroke-linejoin="round"/>
    </svg>

    <svg id="settings-icon" width="30" height="30" viewBox="0 0 30 30" fill="none" stroke="currentColor">
        <g clip-path="url(#clip0_9_33)">
            <path d="M15 18.75C17.0711 18.75 18.75 17.0711 18.75 15C18.75 12.9289 17.0711 11.25 15 11.25C12.9289 11.25 11.25 12.9289 11.25 15C11.25 17.0711 12.9289 18.75 15 18.75Z" stroke-width="3" stroke-linecap="round" stroke-linejoin="round"/>
            <path d="M24.25 18.75C24.0836 19.127 24.034 19.5452 24.1075 19.9507C24.181 20.3562 24.3743 20.7304 24.6625 21.025L24.7375 21.1C24.9699 21.3322 25.1543 21.6079 25.2801 21.9114C25.406 22.2149 25.4707 22.5402 25.4707 22.8688C25.4707 23.1973 25.406 23.5226 25.2801 23.8261C25.1543 24.1296 24.9699 24.4053 24.7375 24.6375C24.5053 24.8699 24.2296 25.0543 23.9261 25.1801C23.6226 25.306 23.2973 25.3707 22.9688 25.3707C22.6402 25.3707 22.3149 25.306 22.0114 25.1801C21.7079 25.0543 21.4322 24.8699 21.2 24.6375L21.125 24.5625C20.8304 24.2743 20.4562 24.081 20.0507 24.0075C19.6452 23.934 19.227 23.9836 18.85 24.15C18.4803 24.3085 18.165 24.5716 17.9429 24.9069C17.7208 25.2423 17.6016 25.6353 17.6 26.0375V26.25C17.6 26.913 17.3366 27.5489 16.8678 28.0178C16.3989 28.4866 15.763 28.75 15.1 28.75C14.437 28.75 13.8011 28.4866 13.3322 28.0178C12.8634 27.5489 12.6 26.913 12.6 26.25V26.1375C12.5903 25.7238 12.4564 25.3225 12.2156 24.9859C11.9749 24.6493 11.6384 24.3929 11.25 24.25C10.873 24.0836 10.4548 24.034 10.0493 24.1075C9.64377 24.181 9.2696 24.3743 8.975 24.6625L8.9 24.7375C8.66782 24.9699 8.3921 25.1543 8.0886 25.2801C7.78511 25.406 7.45979 25.4707 7.13125 25.4707C6.80271 25.4707 6.47739 25.406 6.1739 25.2801C5.8704 25.1543 5.59468 24.9699 5.3625 24.7375C5.13006 24.5053 4.94566 24.2296 4.81985 23.9261C4.69404 23.6226 4.62928 23.2973 4.62928 22.9688C4.62928 22.6402 4.69404 22.3149 4.81985 22.0114C4.94566 21.7079 5.13006 21.4322 5.3625 21.2L5.4375 21.125C5.72567 20.8304 5.91898 20.4562 5.99251 20.0507C6.06603 19.6452 6.01639 19.227 5.85 18.85C5.69155 18.4803 5.42844 18.165 5.09308 17.9429C4.75772 17.7208 4.36473 17.6016 3.9625 17.6H3.75C3.08696 17.6 2.45107 17.3366 1.98223 16.8678C1.51339 16.3989 1.25 15.763 1.25 15.1C1.25 14.437 1.51339 13.8011 1.98223 13.3322C2.45107 12.8634 3.08696 12.6 3.75 12.6H3.8625C4.27624 12.5903 4.67751 12.4564 5.01412 12.2156C5.35074 11.9749 5.60714 11.6384 5.75 11.25C5.91639 10.873 5.96603 10.4548 5.89251 10.0493C5.81898 9.64377 5.62567 9.2696 5.3375 8.975L5.2625 8.9C5.03006 8.66782 4.84566 8.3921 4.71985 8.0886C4.59404 7.78511 4.52928 7.45979 4.52928 7.13125C4.52928 6.80271 4.59404 6.47739 4.71985 6.1739C4.84566 5.8704 5.03006 5.59468 5.2625 5.3625C5.49468 5.13006 5.7704 4.94566 6.0739 4.81985C6.37739 4.69404 6.70271 4.62928 7.03125 4.62928C7.35979 4.62928 7.68511 4.69404 7.9886 4.81985C8.2921 4.94566 8.56782 5.13006 8.8 5.3625L8.875 5.4375C9.1696 5.72567 9.54377 5.91898 9.94926 5.99251C10.3548 6.06603 10.773 6.01639 11.15 5.85H11.25C11.6197 5.69155 11.935 5.42844 12.1571 5.09308C12.3792 4.75772 12.4984 4.36473 12.5 3.9625V3.75C12.5 3.08696 12.7634 2.45107 13.2322 1.98223C13.7011 1.51339 14.337 1.25 15 1.25C15.663 1.25 16.2989 1.51339 16.7678 1.98223C17.2366 2.45107 17.5 3.08696 17.5 3.75V3.8625C17.5016 4.26473 17.6208 4.65772 17.8429 4.99308C18.065 5.32844 18.3803 5.59155 18.75 5.75C19.127 5.91639 19.5452 5.96603 19.9507 5.89251C20.3562 5.81898 20.7304 5.62567 21.025 5.3375L21.1 5.2625C21.3322 5.03006 21.6079 4.84566 21.9114 4.71985C22.2149 4.59404 22.5402 4.52928 22.8688 4.52928C23.1973 4.52928 23.5226 4.59404 23.8261 4.71985C24.1296 4.84566 24.4053 5.03006 24.6375 5.2625C24.8699 5.49468 25.0543 5.7704 25.1801 6.0739C25.306 6.37739 25.3707 6.70271 25.3707 7.03125C25.3707 7.35979 25.306 7.68511 25.1801 7.9886C25.0543 8.2921 24.8699 8.56782 24.6375 8.8L24.5625 8.875C24.2743 9.1696 24.081 9.54377 24.0075 9.94926C23.934 10.3548 23.9836 10.773 24.15 11.15V11.25C24.3085 11.6197 24.5716 11.935 24.9069 12.1571C25.2423 12.3792 25.6353 12.4984 26.0375 12.5H26.25C26.913 12.5 27.5489 12.7634 28.0178 13.2322C28.4866 13.7011 28.75 14.337 28.75 15C28.75 15.663 28.4866 16.2989 28.0178 16.7678C27.5489 17.2366 26.913 17.5 26.25 17.5H26.1375C25.7353 17.5016 25.3423 17.6208 25.0069 17.8429C24.6716 18.065 24.4085 18.3803 24.25 18.75V18.75Z" stroke-width="3" stroke-linecap="round" stroke-linejoin="round"/>
        </g>
        <defs>
            <clipPath id="clip0_9_33">
                <rect width="30" height="30" fill="currentColor"/>
            </clipPath>
        </defs>
    </svg>

    <svg id="play-icon" width="16" height="17" viewBox="0 0 16 17" fill="currentColor" stroke="currentColor">
        <path d="M2 2L14 8.6394L2 15.2788V2Z" stroke-width="2.5" stroke-linecap="round" stroke-linejoin="round"/>
    </svg>

    <svg id="flat-arrow-icon" width="16" height="9" viewBox="0 0 16 9" fill="currentColor" stroke="currentColor">
        <path d="M2 2L8 7" stroke-width="2" stroke-linecap="square"/>
        <path d="M8 7L14 2" stroke-width="2" stroke-linecap="square"/>
    </svg>

    <svg id="arrow-icon" width="11" height="7" viewBox="0 0 11 7" fill="currentColor" stroke="currentColor">
        <path d="M10 0.999994L5.5 6L1 1.00001" stroke-linecap="round" stroke-linejoin="round"/>
    </svg>

    <svg id="globe-icon" width="18" height="18" viewBox="0 0 18 18" fill="none" stroke="currentColor">
        <path d="M9 16.5C13.1421 16.5 16.5 13.1421 16.5 9C16.5 4.85786 13.1421 1.5 9 1.5C4.85786 1.5 1.5 4.85786 1.5 9C1.5 13.1421 4.85786 16.5 9 16.5Z" stroke-linecap="round" stroke-linejoin="round"/>
        <path d="M1.5 9H16.5" stroke-linecap="round" stroke-linejoin="round"/>
        <path d="M9 1.5C10.876 3.55376 11.9421 6.21903 12 9C11.9421 11.781 10.876 14.4462 9 16.5C7.12404 14.4462 6.05794 11.781 6 9C6.05794 6.21903 7.12404 3.55376 9 1.5V1.5Z" stroke-linecap="round" stroke-linejoin="round"/>
    </svg>

    <svg id="like-icon" width="14" height="14" viewBox="0 0 14 14" fill="currentColor">
        <path d="M3.56299 2.02362C5.52686 1.74523 7.00011 4.01931 7.00011 4.01931C7.00011 4.01931 8.47322 1.74524 10.4371 2.02363C12.1357 2.26442 13.383 4.01933 12.892 6.01503C12.4992 7.6116 8.47313 11.6695 7.00011 13C5.52709 11.6695 1.50076 7.61161 1.10795 6.01504C0.616947 4.01934 1.86437 2.26441 3.56299 2.02362Z"/>
    </svg>

    <svg id="facebook-icon" width="39" height="39" viewBox="0 0 39 39" fill="currentColor" stroke="currentColor">
        <path fill-rule="evenodd" clip-rule="evenodd" d="M17.5507 27V19.4994H16V16.9146H17.5507V15.3626C17.5507 13.2539 18.4264 12 20.9142 12H22.9853V14.5851H21.6907C20.7223 14.5851 20.6582 14.9464 20.6582 15.6205L20.6547 16.9143H23L22.7256 19.4991H20.6547V27H17.5507Z"/>
    </svg>

    <svg id="linkedin-icon" width="39" height="39" viewBox="0 0 39 39" fill="currentColor" stroke="currentColor">
        <path fill-rule="evenodd" clip-rule="evenodd" d="M16 26H13V17H16V26Z"/>
        <path fill-rule="evenodd" clip-rule="evenodd" d="M14.4911 15H14.474C13.5788 15 13 14.333 13 13.4995C13 12.6483 13.5964 12 14.5087 12C15.4209 12 15.9827 12.6483 16 13.4995C16 14.333 15.4209 15 14.4911 15Z"/>
        <path fill-rule="evenodd" clip-rule="evenodd" d="M26.9999 25.9998H24.0519V21.2954C24.0519 20.1137 23.6253 19.3074 22.5581 19.3074C21.7437 19.3074 21.2586 19.851 21.0455 20.376C20.9675 20.5641 20.9484 20.8263 20.9484 21.0891V26H18C18 26 18.0389 18.0318 18 17.2067H20.9484V18.4522C21.3397 17.8535 22.0405 17 23.6057 17C25.5456 17 27 18.2571 27 20.958L26.9999 25.9998Z"/>
    </svg>

    <svg id="twitter-icon" width="39" height="39" viewBox="0 0 39 39" fill="currentColor" stroke="currentColor">
        <path fill-rule="evenodd" clip-rule="evenodd" d="M19.3122 16.9262L19.3404 17.402L18.8708 17.3437C17.1612 17.1204 15.6677 16.363 14.3996 15.091L13.7796 14.4599L13.62 14.926C13.2818 15.9649 13.4978 17.0621 14.2023 17.8001C14.5781 18.2079 14.4935 18.2661 13.8454 18.0234C13.62 17.9457 13.4227 17.8874 13.4039 17.9166C13.3382 17.9845 13.5636 18.8681 13.7421 19.2177C13.9863 19.7032 14.4841 20.179 15.0289 20.4605L15.4892 20.6839L14.9444 20.6936C14.4184 20.6936 14.3996 20.7033 14.4559 20.9072C14.6438 21.5383 15.3859 22.2083 16.2125 22.4996L16.7949 22.7035L16.2876 23.0142C15.5362 23.4609 14.6532 23.7133 13.7702 23.7328C13.3475 23.7425 13 23.7813 13 23.8104C13 23.9075 14.146 24.4513 14.8129 24.6649C16.8136 25.296 19.1901 25.0242 20.9748 23.9464C22.2429 23.1793 23.511 21.6549 24.1028 20.179C24.4222 19.3925 24.7415 17.9554 24.7415 17.266C24.7415 16.8194 24.7697 16.7611 25.2957 16.2271C25.6057 15.9164 25.8969 15.5765 25.9532 15.4794C26.0472 15.2949 26.0378 15.2949 25.5587 15.46C24.7603 15.7513 24.6476 15.7124 25.0421 15.2755C25.3333 14.9648 25.6808 14.4016 25.6808 14.2366C25.6808 14.2074 25.5399 14.256 25.3803 14.3434C25.2112 14.4405 24.8355 14.5861 24.5537 14.6735L24.0464 14.8386L23.5862 14.5181C23.3325 14.3434 22.9756 14.1492 22.7877 14.0909C22.3087 13.955 21.576 13.9744 21.1439 14.1297C19.9698 14.5667 19.2277 15.693 19.3122 16.9262Z"/>
    </svg>

    <svg id="download-icon" width="24" height="24" viewBox="0 0 24 24" fill="currentColor" stroke="currentColor">
        <path d="M21 15V19C21 19.5304 20.7893 20.0391 20.4142 20.4142C20.0391 20.7893 19.5304 21 19 21H5C4.46957 21 3.96086 20.7893 3.58579 20.4142C3.21071 20.0391 3 19.5304 3 19V15" stroke-width="2" stroke-linecap="round" stroke-linejoin="round"/>
        <path d="M7 10L12 15L17 10" stroke-width="2" stroke-linecap="round" stroke-linejoin="round"/>
        <path d="M12 15V3" stroke-width="2" stroke-linecap="round" stroke-linejoin="round"/>
    </svg>

    <svg id="play-trailer-icon" width="16" height="20" viewBox="0 0 16 20" fill="currentColor" stroke="currentColor">
        <path d="M2 2L14 10L2 18V2Z" stroke-width="3" stroke-linecap="round" stroke-linejoin="round"/>
    </svg>
</svg>